<svg xmlns="http://www.w3.org/2000/svg" xmlns:xlink="http://www.w3.org/1999/xlink" width="313" zoomAndPan="magnify" viewBox="0 0 234.75 47.25" height="63" preserveAspectRatio="xMidYMid meet" version="1.0"><defs><g/><clipPath id="5c869f496f"><path d="M 16 9.539062 L 37.148438 9.539062 L 37.148438 36.855469 L 16 36.855469 Z M 16 9.539062 " clip-rule="nonzero"/></clipPath><clipPath id="516f753151"><path d="M 1.710938 12 L 16 12 L 16 35 L 1.710938 35 Z M 1.710938 12 " clip-rule="nonzero"/></clipPath></defs><g clip-path="url(#5c869f496f)"><path fill="#004aad" d="M 37.433594 23.070312 C 37.433594 27.21875 35.574219 30.90625 32.65625 33.394531 C 31.371094 34.480469 29.855469 35.367188 28.195312 35.910156 C 27.679688 36.082031 27.136719 36.226562 26.59375 36.3125 C 25.707031 36.511719 24.820312 36.597656 23.902344 36.597656 C 23.304688 36.597656 22.730469 36.570312 22.160156 36.484375 C 21.675781 36.425781 21.1875 36.339844 20.730469 36.226562 C 19.101562 35.824219 17.613281 35.167969 16.269531 34.222656 C 17.640625 34.9375 19.128906 35.425781 20.730469 35.597656 C 21.128906 35.625 21.53125 35.652344 21.960938 35.652344 L 22.160156 35.652344 C 23.734375 35.625 25.21875 35.3125 26.59375 34.765625 C 27.164062 34.539062 27.679688 34.28125 28.195312 33.996094 C 30.027344 32.9375 31.570312 31.449219 32.65625 29.648438 C 33.832031 27.761719 34.515625 25.5 34.515625 23.070312 C 34.515625 16.148438 28.882812 10.511719 21.960938 10.511719 C 19.902344 10.511719 17.984375 11.058594 16.269531 11.914062 C 18.441406 10.429688 21.074219 9.542969 23.90625 9.542969 C 31.398438 9.542969 37.433594 15.605469 37.433594 23.070312 Z M 37.433594 23.070312 " fill-opacity="1" fill-rule="nonzero"/></g><path fill="#ff3131" d="M 20.730469 26.1875 L 20.730469 34.425781 C 19.441406 34.28125 17.554688 33.566406 16.269531 32.910156 L 16.269531 26.1875 Z M 20.730469 26.1875 " fill-opacity="1" fill-rule="nonzero"/><path fill="#004aad" d="M 26.59375 23.070312 L 26.59375 33.507812 C 26.449219 33.59375 26.308594 33.652344 26.164062 33.710938 C 24.933594 34.195312 23.648438 34.453125 22.160156 34.511719 L 22.160156 23.070312 Z M 26.59375 23.070312 " fill-opacity="1" fill-rule="nonzero"/><path fill="#004aad" d="M 32.65625 20.351562 L 32.65625 27.015625 C 32.429688 27.730469 32.085938 28.417969 31.683594 29.046875 C 30.828125 30.507812 29.625 31.707031 28.195312 32.621094 L 28.195312 20.351562 Z M 32.65625 20.351562 " fill-opacity="1" fill-rule="nonzero"/><path fill="#ff3131" d="M 23.933594 21.984375 C 20.730469 20.726562 20.128906 17.035156 20.128906 17.035156 L 16.496094 18.40625 L 15.523438 18.78125 L 10.976562 20.496094 C 15.839844 26.988281 15.464844 34.167969 15.464844 34.167969 C 13.523438 23.671875 8.089844 19.808594 8.089844 19.808594 L 14.496094 17.320312 L 15.8125 16.804688 L 21.417969 14.632812 C 21.417969 18.378906 23.648438 21.582031 23.933594 21.984375 Z M 23.933594 21.984375 " fill-opacity="1" fill-rule="nonzero"/><g clip-path="url(#516f753151)"><path fill="#ff3131" d="M 13.75 15.261719 L 4.941406 18.582031 C 13.78125 24.398438 15.46875 34.167969 15.46875 34.167969 C 11.175781 23.183594 1.710938 18.035156 1.710938 18.035156 L 15.039062 12.832031 C 15.039062 13.972656 15.238281 15.03125 15.554688 16.003906 L 14.152344 16.550781 C 13.835938 15.835938 13.75 15.261719 13.75 15.261719 Z M 13.75 15.261719 " fill-opacity="1" fill-rule="nonzero"/></g><path fill="#ff3131" d="M 15.058594 34.023438 C 15.058594 34.023438 12.917969 29.042969 9.546875 25.773438 L 8.355469 26.511719 C 8.355469 26.511719 11.898438 29.046875 15.058594 34.023438 Z M 15.058594 34.023438 " fill-opacity="1" fill-rule="nonzero"/><g fill="#004aad" fill-opacity="1"><g transform="translate(42.789431, 30.824381)"><g><path d="M 1.703125 0 L 1.703125 -15.875 L 8.25 -15.875 C 9.226562 -15.875 10.101562 -15.789062 10.875 -15.625 C 11.644531 -15.457031 12.304688 -15.203125 12.859375 -14.859375 C 13.410156 -14.515625 13.832031 -14.078125 14.125 -13.546875 C 14.414062 -13.015625 14.5625 -12.378906 14.5625 -11.640625 C 14.5625 -11.035156 14.429688 -10.492188 14.171875 -10.015625 C 13.910156 -9.546875 13.5 -9.164062 12.9375 -8.875 C 12.382812 -8.59375 11.65625 -8.394531 10.75 -8.28125 L 10.75 -7.921875 C 12.28125 -7.816406 13.40625 -7.441406 14.125 -6.796875 C 14.84375 -6.148438 15.203125 -5.269531 15.203125 -4.15625 C 15.203125 -3.25 14.960938 -2.484375 14.484375 -1.859375 C 14.003906 -1.242188 13.296875 -0.78125 12.359375 -0.46875 C 11.421875 -0.15625 10.253906 0 8.859375 0 Z M 5.03125 -2.796875 L 8.828125 -2.796875 C 9.234375 -2.796875 9.609375 -2.820312 9.953125 -2.875 C 10.304688 -2.925781 10.628906 -3.019531 10.921875 -3.15625 C 11.210938 -3.300781 11.429688 -3.5 11.578125 -3.75 C 11.734375 -4.007812 11.8125 -4.332031 11.8125 -4.71875 C 11.8125 -5.070312 11.742188 -5.367188 11.609375 -5.609375 C 11.484375 -5.859375 11.304688 -6.066406 11.078125 -6.234375 C 10.859375 -6.410156 10.59375 -6.550781 10.28125 -6.65625 C 9.96875 -6.769531 9.625 -6.847656 9.25 -6.890625 C 8.875 -6.929688 8.476562 -6.953125 8.0625 -6.953125 L 5.03125 -6.953125 Z M 5.03125 -9.140625 L 7.5 -9.140625 C 8.03125 -9.140625 8.515625 -9.171875 8.953125 -9.234375 C 9.398438 -9.304688 9.785156 -9.414062 10.109375 -9.5625 C 10.441406 -9.71875 10.703125 -9.925781 10.890625 -10.1875 C 11.078125 -10.457031 11.171875 -10.789062 11.171875 -11.1875 C 11.171875 -11.570312 11.085938 -11.890625 10.921875 -12.140625 C 10.765625 -12.390625 10.539062 -12.585938 10.25 -12.734375 C 9.957031 -12.878906 9.625 -12.984375 9.25 -13.046875 C 8.875 -13.109375 8.476562 -13.140625 8.0625 -13.140625 L 5.03125 -13.140625 Z M 5.03125 -9.140625 "/></g></g></g><g fill="#004aad" fill-opacity="1"><g transform="translate(59.048516, 30.824381)"><g><path d="M 5.78125 0.34375 C 5.15625 0.34375 4.597656 0.253906 4.109375 0.078125 C 3.628906 -0.0976562 3.21875 -0.359375 2.875 -0.703125 C 2.53125 -1.054688 2.242188 -1.472656 2.015625 -1.953125 C 1.796875 -2.441406 1.628906 -3.003906 1.515625 -3.640625 C 1.398438 -4.273438 1.34375 -4.976562 1.34375 -5.75 L 1.34375 -12.625 L 4.84375 -12.625 L 4.84375 -6.515625 C 4.84375 -6.160156 4.851562 -5.757812 4.875 -5.3125 C 4.894531 -4.863281 4.972656 -4.425781 5.109375 -4 C 5.242188 -3.582031 5.460938 -3.234375 5.765625 -2.953125 C 6.078125 -2.679688 6.503906 -2.546875 7.046875 -2.546875 C 7.492188 -2.546875 7.878906 -2.65625 8.203125 -2.875 C 8.535156 -3.09375 8.820312 -3.40625 9.0625 -3.8125 C 9.3125 -4.21875 9.492188 -4.695312 9.609375 -5.25 C 9.734375 -5.8125 9.800781 -6.421875 9.8125 -7.078125 L 9.8125 -12.625 L 13.28125 -12.625 L 13.28125 0 L 10.46875 0 L 10.46875 -4.046875 L 10.03125 -4.046875 C 9.820312 -3.015625 9.53125 -2.175781 9.15625 -1.53125 C 8.789062 -0.894531 8.332031 -0.421875 7.78125 -0.109375 C 7.226562 0.191406 6.5625 0.34375 5.78125 0.34375 Z M 5.78125 0.34375 "/></g></g></g><g fill="#004aad" fill-opacity="1"><g transform="translate(73.864485, 30.824381)"><g><path d="M 6.609375 0.34375 C 5.765625 0.34375 4.992188 0.257812 4.296875 0.09375 C 3.609375 -0.0625 3.015625 -0.296875 2.515625 -0.609375 C 2.023438 -0.921875 1.625 -1.296875 1.3125 -1.734375 C 1.007812 -2.179688 0.820312 -2.675781 0.75 -3.21875 L 3.421875 -4.234375 C 3.484375 -3.878906 3.65625 -3.546875 3.9375 -3.234375 C 4.21875 -2.921875 4.597656 -2.671875 5.078125 -2.484375 C 5.554688 -2.304688 6.140625 -2.21875 6.828125 -2.21875 C 7.554688 -2.21875 8.117188 -2.320312 8.515625 -2.53125 C 8.921875 -2.75 9.125 -3.0625 9.125 -3.46875 C 9.125 -3.769531 9.007812 -4.007812 8.78125 -4.1875 C 8.5625 -4.363281 8.238281 -4.515625 7.8125 -4.640625 C 7.382812 -4.773438 6.863281 -4.894531 6.25 -5 C 5.644531 -5.144531 5.03125 -5.300781 4.40625 -5.46875 C 3.789062 -5.644531 3.222656 -5.875 2.703125 -6.15625 C 2.179688 -6.445312 1.757812 -6.820312 1.4375 -7.28125 C 1.125 -7.75 0.96875 -8.347656 0.96875 -9.078125 C 0.96875 -9.859375 1.175781 -10.535156 1.59375 -11.109375 C 2.007812 -11.691406 2.617188 -12.144531 3.421875 -12.46875 C 4.234375 -12.800781 5.210938 -12.96875 6.359375 -12.96875 C 7.398438 -12.96875 8.3125 -12.828125 9.09375 -12.546875 C 9.882812 -12.265625 10.523438 -11.851562 11.015625 -11.3125 C 11.515625 -10.78125 11.84375 -10.140625 12 -9.390625 L 9.1875 -8.5 C 9.125 -8.894531 8.972656 -9.238281 8.734375 -9.53125 C 8.492188 -9.832031 8.164062 -10.054688 7.75 -10.203125 C 7.34375 -10.347656 6.867188 -10.421875 6.328125 -10.421875 C 5.648438 -10.421875 5.125 -10.304688 4.75 -10.078125 C 4.375 -9.859375 4.1875 -9.5625 4.1875 -9.1875 C 4.1875 -8.882812 4.3125 -8.632812 4.5625 -8.4375 C 4.8125 -8.25 5.15625 -8.09375 5.59375 -7.96875 C 6.03125 -7.851562 6.554688 -7.734375 7.171875 -7.609375 C 7.816406 -7.472656 8.4375 -7.320312 9.03125 -7.15625 C 9.632812 -6.988281 10.179688 -6.769531 10.671875 -6.5 C 11.171875 -6.226562 11.566406 -5.863281 11.859375 -5.40625 C 12.160156 -4.957031 12.3125 -4.375 12.3125 -3.65625 C 12.3125 -2.820312 12.085938 -2.109375 11.640625 -1.515625 C 11.191406 -0.921875 10.539062 -0.460938 9.6875 -0.140625 C 8.84375 0.179688 7.816406 0.34375 6.609375 0.34375 Z M 6.609375 0.34375 "/></g></g></g><g fill="#004aad" fill-opacity="1"><g transform="translate(86.876556, 30.824381)"><g><path d="M 1.546875 0 L 1.546875 -12.625 L 5 -12.625 L 5 0 Z M 3.28125 -14.46875 C 2.601562 -14.46875 2.082031 -14.609375 1.71875 -14.890625 C 1.363281 -15.179688 1.1875 -15.59375 1.1875 -16.125 C 1.1875 -16.6875 1.363281 -17.113281 1.71875 -17.40625 C 2.082031 -17.695312 2.601562 -17.84375 3.28125 -17.84375 C 3.96875 -17.84375 4.488281 -17.695312 4.84375 -17.40625 C 5.207031 -17.113281 5.390625 -16.6875 5.390625 -16.125 C 5.390625 -15.59375 5.207031 -15.179688 4.84375 -14.890625 C 4.488281 -14.609375 3.96875 -14.46875 3.28125 -14.46875 Z M 3.28125 -14.46875 "/></g></g></g><g fill="#004aad" fill-opacity="1"><g transform="translate(93.418674, 30.824381)"><g><path d="M 1.546875 0 L 1.546875 -12.625 L 4.375 -12.625 L 4.359375 -8.703125 L 4.8125 -8.703125 C 5.019531 -9.753906 5.328125 -10.585938 5.734375 -11.203125 C 6.148438 -11.816406 6.648438 -12.265625 7.234375 -12.546875 C 7.816406 -12.828125 8.476562 -12.96875 9.21875 -12.96875 C 10.050781 -12.96875 10.734375 -12.816406 11.265625 -12.515625 C 11.804688 -12.222656 12.238281 -11.835938 12.5625 -11.359375 C 12.882812 -10.878906 13.125 -10.351562 13.28125 -9.78125 C 13.4375 -9.207031 13.539062 -8.640625 13.59375 -8.078125 C 13.644531 -7.523438 13.671875 -7.019531 13.671875 -6.5625 L 13.671875 0 L 10.203125 0 L 10.203125 -6.15625 C 10.203125 -6.457031 10.1875 -6.828125 10.15625 -7.265625 C 10.125 -7.703125 10.039062 -8.128906 9.90625 -8.546875 C 9.769531 -8.972656 9.546875 -9.332031 9.234375 -9.625 C 8.921875 -9.914062 8.484375 -10.0625 7.921875 -10.0625 C 7.273438 -10.0625 6.738281 -9.863281 6.3125 -9.46875 C 5.882812 -9.070312 5.554688 -8.535156 5.328125 -7.859375 C 5.109375 -7.191406 5 -6.441406 5 -5.609375 L 5 0 Z M 1.546875 0 "/></g></g></g><g fill="#004aad" fill-opacity="1"><g transform="translate(108.451105, 30.824381)"><g><path d="M 7.40625 0.34375 C 6.363281 0.34375 5.4375 0.195312 4.625 -0.09375 C 3.820312 -0.382812 3.140625 -0.804688 2.578125 -1.359375 C 2.015625 -1.910156 1.585938 -2.582031 1.296875 -3.375 C 1.003906 -4.175781 0.859375 -5.082031 0.859375 -6.09375 C 0.859375 -7.082031 1 -8 1.28125 -8.84375 C 1.5625 -9.6875 1.972656 -10.414062 2.515625 -11.03125 C 3.054688 -11.644531 3.71875 -12.117188 4.5 -12.453125 C 5.28125 -12.796875 6.171875 -12.96875 7.171875 -12.96875 C 8.148438 -12.96875 9.007812 -12.804688 9.75 -12.484375 C 10.5 -12.160156 11.125 -11.6875 11.625 -11.0625 C 12.125 -10.4375 12.488281 -9.675781 12.71875 -8.78125 C 12.945312 -7.882812 13.023438 -6.847656 12.953125 -5.671875 L 3.109375 -5.609375 L 3.109375 -7.5 L 10.90625 -7.578125 L 9.75 -6.59375 C 9.851562 -7.445312 9.796875 -8.144531 9.578125 -8.6875 C 9.367188 -9.226562 9.050781 -9.628906 8.625 -9.890625 C 8.195312 -10.148438 7.71875 -10.28125 7.1875 -10.28125 C 6.582031 -10.28125 6.050781 -10.117188 5.59375 -9.796875 C 5.132812 -9.472656 4.78125 -9 4.53125 -8.375 C 4.28125 -7.757812 4.15625 -7.019531 4.15625 -6.15625 C 4.15625 -4.789062 4.453125 -3.789062 5.046875 -3.15625 C 5.640625 -2.53125 6.425781 -2.21875 7.40625 -2.21875 C 7.851562 -2.21875 8.234375 -2.273438 8.546875 -2.390625 C 8.859375 -2.515625 9.113281 -2.671875 9.3125 -2.859375 C 9.519531 -3.054688 9.679688 -3.273438 9.796875 -3.515625 C 9.910156 -3.753906 10 -4.003906 10.0625 -4.265625 L 13.09375 -3.640625 C 12.976562 -3.046875 12.78125 -2.503906 12.5 -2.015625 C 12.21875 -1.535156 11.847656 -1.117188 11.390625 -0.765625 C 10.929688 -0.410156 10.375 -0.140625 9.71875 0.046875 C 9.0625 0.242188 8.289062 0.34375 7.40625 0.34375 Z M 7.40625 0.34375 "/></g></g></g><g fill="#004aad" fill-opacity="1"><g transform="translate(122.329048, 30.824381)"><g><path d="M 6.609375 0.34375 C 5.765625 0.34375 4.992188 0.257812 4.296875 0.09375 C 3.609375 -0.0625 3.015625 -0.296875 2.515625 -0.609375 C 2.023438 -0.921875 1.625 -1.296875 1.3125 -1.734375 C 1.007812 -2.179688 0.820312 -2.675781 0.75 -3.21875 L 3.421875 -4.234375 C 3.484375 -3.878906 3.65625 -3.546875 3.9375 -3.234375 C 4.21875 -2.921875 4.597656 -2.671875 5.078125 -2.484375 C 5.554688 -2.304688 6.140625 -2.21875 6.828125 -2.21875 C 7.554688 -2.21875 8.117188 -2.320312 8.515625 -2.53125 C 8.921875 -2.75 9.125 -3.0625 9.125 -3.46875 C 9.125 -3.769531 9.007812 -4.007812 8.78125 -4.1875 C 8.5625 -4.363281 8.238281 -4.515625 7.8125 -4.640625 C 7.382812 -4.773438 6.863281 -4.894531 6.25 -5 C 5.644531 -5.144531 5.03125 -5.300781 4.40625 -5.46875 C 3.789062 -5.644531 3.222656 -5.875 2.703125 -6.15625 C 2.179688 -6.445312 1.757812 -6.820312 1.4375 -7.28125 C 1.125 -7.75 0.96875 -8.347656 0.96875 -9.078125 C 0.96875 -9.859375 1.175781 -10.535156 1.59375 -11.109375 C 2.007812 -11.691406 2.617188 -12.144531 3.421875 -12.46875 C 4.234375 -12.800781 5.210938 -12.96875 6.359375 -12.96875 C 7.398438 -12.96875 8.3125 -12.828125 9.09375 -12.546875 C 9.882812 -12.265625 10.523438 -11.851562 11.015625 -11.3125 C 11.515625 -10.78125 11.84375 -10.140625 12 -9.390625 L 9.1875 -8.5 C 9.125 -8.894531 8.972656 -9.238281 8.734375 -9.53125 C 8.492188 -9.832031 8.164062 -10.054688 7.75 -10.203125 C 7.34375 -10.347656 6.867188 -10.421875 6.328125 -10.421875 C 5.648438 -10.421875 5.125 -10.304688 4.75 -10.078125 C 4.375 -9.859375 4.1875 -9.5625 4.1875 -9.1875 C 4.1875 -8.882812 4.3125 -8.632812 4.5625 -8.4375 C 4.8125 -8.25 5.15625 -8.09375 5.59375 -7.96875 C 6.03125 -7.851562 6.554688 -7.734375 7.171875 -7.609375 C 7.816406 -7.472656 8.4375 -7.320312 9.03125 -7.15625 C 9.632812 -6.988281 10.179688 -6.769531 10.671875 -6.5 C 11.171875 -6.226562 11.566406 -5.863281 11.859375 -5.40625 C 12.160156 -4.957031 12.3125 -4.375 12.3125 -3.65625 C 12.3125 -2.820312 12.085938 -2.109375 11.640625 -1.515625 C 11.191406 -0.921875 10.539062 -0.460938 9.6875 -0.140625 C 8.84375 0.179688 7.816406 0.34375 6.609375 0.34375 Z M 6.609375 0.34375 "/></g></g></g><g fill="#004aad" fill-opacity="1"><g transform="translate(135.341119, 30.824381)"><g><path d="M 6.609375 0.34375 C 5.765625 0.34375 4.992188 0.257812 4.296875 0.09375 C 3.609375 -0.0625 3.015625 -0.296875 2.515625 -0.609375 C 2.023438 -0.921875 1.625 -1.296875 1.3125 -1.734375 C 1.007812 -2.179688 0.820312 -2.675781 0.75 -3.21875 L 3.421875 -4.234375 C 3.484375 -3.878906 3.65625 -3.546875 3.9375 -3.234375 C 4.21875 -2.921875 4.597656 -2.671875 5.078125 -2.484375 C 5.554688 -2.304688 6.140625 -2.21875 6.828125 -2.21875 C 7.554688 -2.21875 8.117188 -2.320312 8.515625 -2.53125 C 8.921875 -2.75 9.125 -3.0625 9.125 -3.46875 C 9.125 -3.769531 9.007812 -4.007812 8.78125 -4.1875 C 8.5625 -4.363281 8.238281 -4.515625 7.8125 -4.640625 C 7.382812 -4.773438 6.863281 -4.894531 6.25 -5 C 5.644531 -5.144531 5.03125 -5.300781 4.40625 -5.46875 C 3.789062 -5.644531 3.222656 -5.875 2.703125 -6.15625 C 2.179688 -6.445312 1.757812 -6.820312 1.4375 -7.28125 C 1.125 -7.75 0.96875 -8.347656 0.96875 -9.078125 C 0.96875 -9.859375 1.175781 -10.535156 1.59375 -11.109375 C 2.007812 -11.691406 2.617188 -12.144531 3.421875 -12.46875 C 4.234375 -12.800781 5.210938 -12.96875 6.359375 -12.96875 C 7.398438 -12.96875 8.3125 -12.828125 9.09375 -12.546875 C 9.882812 -12.265625 10.523438 -11.851562 11.015625 -11.3125 C 11.515625 -10.78125 11.84375 -10.140625 12 -9.390625 L 9.1875 -8.5 C 9.125 -8.894531 8.972656 -9.238281 8.734375 -9.53125 C 8.492188 -9.832031 8.164062 -10.054688 7.75 -10.203125 C 7.34375 -10.347656 6.867188 -10.421875 6.328125 -10.421875 C 5.648438 -10.421875 5.125 -10.304688 4.75 -10.078125 C 4.375 -9.859375 4.1875 -9.5625 4.1875 -9.1875 C 4.1875 -8.882812 4.3125 -8.632812 4.5625 -8.4375 C 4.8125 -8.25 5.15625 -8.09375 5.59375 -7.96875 C 6.03125 -7.851562 6.554688 -7.734375 7.171875 -7.609375 C 7.816406 -7.472656 8.4375 -7.320312 9.03125 -7.15625 C 9.632812 -6.988281 10.179688 -6.769531 10.671875 -6.5 C 11.171875 -6.226562 11.566406 -5.863281 11.859375 -5.40625 C 12.160156 -4.957031 12.3125 -4.375 12.3125 -3.65625 C 12.3125 -2.820312 12.085938 -2.109375 11.640625 -1.515625 C 11.191406 -0.921875 10.539062 -0.460938 9.6875 -0.140625 C 8.84375 0.179688 7.816406 0.34375 6.609375 0.34375 Z M 6.609375 0.34375 "/></g></g></g><g fill="#004aad" fill-opacity="1"><g transform="translate(148.353191, 30.824381)"><g/></g></g><g fill="#004aad" fill-opacity="1"><g transform="translate(153.837026, 30.824381)"><g><path d="M 8.96875 0.34375 C 7.738281 0.34375 6.632812 0.164062 5.65625 -0.1875 C 4.6875 -0.539062 3.863281 -1.0625 3.1875 -1.75 C 2.519531 -2.445312 2.007812 -3.300781 1.65625 -4.3125 C 1.300781 -5.320312 1.125 -6.472656 1.125 -7.765625 C 1.125 -9.117188 1.304688 -10.3125 1.671875 -11.34375 C 2.035156 -12.375 2.550781 -13.253906 3.21875 -13.984375 C 3.894531 -14.722656 4.695312 -15.28125 5.625 -15.65625 C 6.5625 -16.03125 7.609375 -16.21875 8.765625 -16.21875 C 9.660156 -16.21875 10.484375 -16.097656 11.234375 -15.859375 C 11.992188 -15.617188 12.644531 -15.273438 13.1875 -14.828125 C 13.726562 -14.390625 14.148438 -13.851562 14.453125 -13.21875 C 14.765625 -12.582031 14.921875 -11.875 14.921875 -11.09375 L 11.71875 -10.28125 C 11.71875 -10.96875 11.570312 -11.539062 11.28125 -12 C 11 -12.457031 10.625 -12.800781 10.15625 -13.03125 C 9.6875 -13.257812 9.179688 -13.375 8.640625 -13.375 C 8.160156 -13.375 7.691406 -13.273438 7.234375 -13.078125 C 6.773438 -12.890625 6.351562 -12.582031 5.96875 -12.15625 C 5.59375 -11.738281 5.296875 -11.1875 5.078125 -10.5 C 4.867188 -9.820312 4.765625 -8.984375 4.765625 -7.984375 C 4.765625 -6.703125 4.945312 -5.65625 5.3125 -4.84375 C 5.6875 -4.039062 6.195312 -3.445312 6.84375 -3.0625 C 7.488281 -2.6875 8.222656 -2.5 9.046875 -2.5 C 9.910156 -2.5 10.585938 -2.675781 11.078125 -3.03125 C 11.566406 -3.394531 11.921875 -3.863281 12.140625 -4.4375 C 12.359375 -5.019531 12.472656 -5.632812 12.484375 -6.28125 L 15.546875 -5.796875 C 15.523438 -4.953125 15.398438 -4.15625 15.171875 -3.40625 C 14.941406 -2.65625 14.566406 -2 14.046875 -1.4375 C 13.523438 -0.875 12.84375 -0.4375 12 -0.125 C 11.164062 0.1875 10.15625 0.34375 8.96875 0.34375 Z M 8.96875 0.34375 "/></g></g></g><g fill="#004aad" fill-opacity="1"><g transform="translate(170.096111, 30.824381)"><g><path d="M 1.546875 0 L 1.546875 -17.15625 L 4.953125 -17.15625 L 4.953125 0 Z M 1.546875 0 "/></g></g></g><g fill="#004aad" fill-opacity="1"><g transform="translate(176.590126, 30.824381)"><g><path d="M 1.546875 0 L 1.546875 -12.625 L 5 -12.625 L 5 0 Z M 3.28125 -14.46875 C 2.601562 -14.46875 2.082031 -14.609375 1.71875 -14.890625 C 1.363281 -15.179688 1.1875 -15.59375 1.1875 -16.125 C 1.1875 -16.6875 1.363281 -17.113281 1.71875 -17.40625 C 2.082031 -17.695312 2.601562 -17.84375 3.28125 -17.84375 C 3.96875 -17.84375 4.488281 -17.695312 4.84375 -17.40625 C 5.207031 -17.113281 5.390625 -16.6875 5.390625 -16.125 C 5.390625 -15.59375 5.207031 -15.179688 4.84375 -14.890625 C 4.488281 -14.609375 3.96875 -14.46875 3.28125 -14.46875 Z M 3.28125 -14.46875 "/></g></g></g><g fill="#004aad" fill-opacity="1"><g transform="translate(183.132244, 30.824381)"><g><path d="M 1.546875 0 L 1.546875 -12.625 L 4.375 -12.625 L 4.359375 -8.703125 L 4.8125 -8.703125 C 5.019531 -9.753906 5.328125 -10.585938 5.734375 -11.203125 C 6.148438 -11.816406 6.648438 -12.265625 7.234375 -12.546875 C 7.816406 -12.828125 8.476562 -12.96875 9.21875 -12.96875 C 10.050781 -12.96875 10.734375 -12.816406 11.265625 -12.515625 C 11.804688 -12.222656 12.238281 -11.835938 12.5625 -11.359375 C 12.882812 -10.878906 13.125 -10.351562 13.28125 -9.78125 C 13.4375 -9.207031 13.539062 -8.640625 13.59375 -8.078125 C 13.644531 -7.523438 13.671875 -7.019531 13.671875 -6.5625 L 13.671875 0 L 10.203125 0 L 10.203125 -6.15625 C 10.203125 -6.457031 10.1875 -6.828125 10.15625 -7.265625 C 10.125 -7.703125 10.039062 -8.128906 9.90625 -8.546875 C 9.769531 -8.972656 9.546875 -9.332031 9.234375 -9.625 C 8.921875 -9.914062 8.484375 -10.0625 7.921875 -10.0625 C 7.273438 -10.0625 6.738281 -9.863281 6.3125 -9.46875 C 5.882812 -9.070312 5.554688 -8.535156 5.328125 -7.859375 C 5.109375 -7.191406 5 -6.441406 5 -5.609375 L 5 0 Z M 1.546875 0 "/></g></g></g><g fill="#004aad" fill-opacity="1"><g transform="translate(198.164675, 30.824381)"><g><path d="M 1.546875 0 L 1.546875 -12.625 L 5 -12.625 L 5 0 Z M 3.28125 -14.46875 C 2.601562 -14.46875 2.082031 -14.609375 1.71875 -14.890625 C 1.363281 -15.179688 1.1875 -15.59375 1.1875 -16.125 C 1.1875 -16.6875 1.363281 -17.113281 1.71875 -17.40625 C 2.082031 -17.695312 2.601562 -17.84375 3.28125 -17.84375 C 3.96875 -17.84375 4.488281 -17.695312 4.84375 -17.40625 C 5.207031 -17.113281 5.390625 -16.6875 5.390625 -16.125 C 5.390625 -15.59375 5.207031 -15.179688 4.84375 -14.890625 C 4.488281 -14.609375 3.96875 -14.46875 3.28125 -14.46875 Z M 3.28125 -14.46875 "/></g></g></g><g fill="#004aad" fill-opacity="1"><g transform="translate(204.706794, 30.824381)"><g><path d="M 7.390625 0.34375 C 6.296875 0.34375 5.335938 0.179688 4.515625 -0.140625 C 3.703125 -0.460938 3.023438 -0.910156 2.484375 -1.484375 C 1.953125 -2.066406 1.546875 -2.753906 1.265625 -3.546875 C 0.992188 -4.335938 0.859375 -5.207031 0.859375 -6.15625 C 0.859375 -7.15625 0.992188 -8.066406 1.265625 -8.890625 C 1.546875 -9.710938 1.957031 -10.425781 2.5 -11.03125 C 3.050781 -11.644531 3.726562 -12.117188 4.53125 -12.453125 C 5.332031 -12.796875 6.242188 -12.96875 7.265625 -12.96875 C 8.054688 -12.96875 8.765625 -12.867188 9.390625 -12.671875 C 10.015625 -12.472656 10.554688 -12.191406 11.015625 -11.828125 C 11.484375 -11.460938 11.863281 -11.023438 12.15625 -10.515625 C 12.457031 -10.015625 12.65625 -9.453125 12.75 -8.828125 L 9.578125 -7.875 C 9.523438 -8.382812 9.390625 -8.816406 9.171875 -9.171875 C 8.960938 -9.535156 8.679688 -9.804688 8.328125 -9.984375 C 7.972656 -10.160156 7.5625 -10.25 7.09375 -10.25 C 6.707031 -10.25 6.347656 -10.171875 6.015625 -10.015625 C 5.691406 -9.867188 5.40625 -9.640625 5.15625 -9.328125 C 4.90625 -9.015625 4.707031 -8.609375 4.5625 -8.109375 C 4.425781 -7.609375 4.359375 -7.003906 4.359375 -6.296875 C 4.359375 -5.359375 4.476562 -4.59375 4.71875 -4 C 4.96875 -3.40625 5.328125 -2.96875 5.796875 -2.6875 C 6.265625 -2.40625 6.8125 -2.265625 7.4375 -2.265625 C 8.0625 -2.265625 8.5625 -2.390625 8.9375 -2.640625 C 9.3125 -2.898438 9.59375 -3.222656 9.78125 -3.609375 C 9.96875 -4.003906 10.078125 -4.421875 10.109375 -4.859375 L 13.15625 -4.203125 C 13.09375 -3.578125 12.929688 -2.988281 12.671875 -2.4375 C 12.421875 -1.882812 12.054688 -1.398438 11.578125 -0.984375 C 11.109375 -0.566406 10.523438 -0.238281 9.828125 0 C 9.128906 0.226562 8.316406 0.34375 7.390625 0.34375 Z M 7.390625 0.34375 "/></g></g></g><g fill="#ff3131" fill-opacity="1"><g transform="translate(218.258115, 30.824381)"><g><path d="M 2.765625 0.3125 C 2.015625 0.3125 1.453125 0.148438 1.078125 -0.171875 C 0.710938 -0.492188 0.53125 -0.988281 0.53125 -1.65625 C 0.53125 -2.34375 0.710938 -2.847656 1.078125 -3.171875 C 1.453125 -3.492188 2.015625 -3.65625 2.765625 -3.65625 C 3.535156 -3.65625 4.109375 -3.492188 4.484375 -3.171875 C 4.859375 -2.847656 5.046875 -2.34375 5.046875 -1.65625 C 5.046875 -0.34375 4.285156 0.3125 2.765625 0.3125 Z M 2.765625 0.3125 "/></g></g></g></svg>